HIERARCHY
ROOT Bip001_Pelvis
{
  OFFSET 34.4345 95.6767 -26.8758
  CHANNELS 6 Xposition Yposition Zposition Zrotation Xrotation Yrotation
  JOINT Bip001_Spine
  {
    OFFSET 1.4188e-005 10.2191 -0.0116013
    CHANNELS 3 Zrotation Xrotation Yrotation
    JOINT Bip001_L_Thigh
    {
      OFFSET 11.0458 -10.2192 0.0116197
      CHANNELS 3 Zrotation Xrotation Yrotation
      JOINT Bip001_L_Calf
      {
        OFFSET -0.707118 -44.0221 0.360014
        CHANNELS 3 Zrotation Xrotation Yrotation
        JOINT Bip001_L_Foot
        {
          OFFSET -0.651902 -40.5938 -3.56146
          CHANNELS 3 Zrotation Xrotation Yrotation
          JOINT Bip001_L_Toe0
          {
            OFFSET 0.0530839 -10.2181 13.1504
            CHANNELS 3 Zrotation Xrotation Yrotation
            End Site
            {
              OFFSET -1.02532e-005 0 7.55606
            }
          }
        }
      }
    }
    JOINT Bip001_R_Thigh
    {
      OFFSET -11.0458 -10.2191 0.0115893
      CHANNELS 3 Zrotation Xrotation Yrotation
      JOINT Bip001_R_Calf
      {
        OFFSET 0.706994 -44.0221 0.35984
        CHANNELS 3 Zrotation Xrotation Yrotation
        JOINT Bip001_R_Foot
        {
          OFFSET 0.651786 -40.5938 -3.5613
          CHANNELS 3 Zrotation Xrotation Yrotation
          JOINT Bip001_R_Toe0
          {
            OFFSET -0.0531479 -10.2181 13.1504
            CHANNELS 3 Zrotation Xrotation Yrotation
            End Site
            {
              OFFSET -1.02894e-005 0 7.55606
            }
          }
        }
      }
    }
    JOINT Bip001_Spine1
    {
      OFFSET 1.87041e-005 14.5736 1.08638
      CHANNELS 3 Zrotation Xrotation Yrotation
      JOINT Bip001_Spine2
      {
        OFFSET 2.24614e-005 14.5058 -1.69078
        CHANNELS 3 Zrotation Xrotation Yrotation
        JOINT Bip001_Neck
        {
          OFFSET 2.20278e-005 15.3945 -0.489414
          CHANNELS 3 Zrotation Xrotation Yrotation
          JOINT Bip001_L_Clavicle
          {
            OFFSET 6.06036 -0.000579998 0.00836775
            CHANNELS 3 Zrotation Xrotation Yrotation
            JOINT Bip001_L_UpperArm
            {
              OFFSET 11.5509 -0.0600302 0.00193952
              CHANNELS 3 Zrotation Xrotation Yrotation
              JOINT Bip001_L_Forearm
              {
                OFFSET 25.9523 0.0806089 -2.15551
                CHANNELS 3 Zrotation Xrotation Yrotation
                JOINT Bip001_L_Hand
                {
                  OFFSET 32.2475 0.153767 1.63968
                  CHANNELS 3 Zrotation Xrotation Yrotation
                  JOINT Bip001_L_Finger0
                  {
                    OFFSET 6.04639 -2.20976 5.90322
                    CHANNELS 3 Zrotation Xrotation Yrotation
                    End Site
                    {
                      OFFSET 4.22375 -1.43895 0.606485
                    }
                  }
                  JOINT Bip001_L_Finger1
                  {
                    OFFSET 11.0826 -0.704819 -0.198153
                    CHANNELS 3 Zrotation Xrotation Yrotation
                    End Site
                    {
                      OFFSET 6.20027 -0.397518 -0.0787166
                    }
                  }
                }
              }
            }
          }
          JOINT Bip001_R_Clavicle
          {
            OFFSET -6.06037 -0.000563197 0.00835105
            CHANNELS 3 Zrotation Xrotation Yrotation
            JOINT Bip001_R_UpperArm
            {
              OFFSET -11.5509 -0.0599978 0.00190698
              CHANNELS 3 Zrotation Xrotation Yrotation
              JOINT Bip001_R_Forearm
              {
                OFFSET -25.9523 0.0806822 -2.15589
                CHANNELS 3 Zrotation Xrotation Yrotation
                JOINT Bip001_R_Hand
                {
                  OFFSET -32.2475 0.153859 1.63989
                  CHANNELS 3 Zrotation Xrotation Yrotation
                  JOINT Bip001_R_Finger0
                  {
                    OFFSET -6.04641 -2.20976 5.90317
                    CHANNELS 3 Zrotation Xrotation Yrotation
                    End Site
                    {
                      OFFSET -4.22376 -1.43895 0.60647
                    }
                  }
                  JOINT Bip001_R_Finger1
                  {
                    OFFSET -11.0826 -0.704794 -0.198182
                    CHANNELS 3 Zrotation Xrotation Yrotation
                    End Site
                    {
                      OFFSET -6.20028 -0.397504 -0.0787333
                    }
                  }
                }
              }
            }
          }
          JOINT Bip001_Head
          {
            OFFSET 1.09673e-005 11.2744 2.05948
            CHANNELS 3 Zrotation Xrotation Yrotation
            End Site
            {
              OFFSET 2.89576e-005 20.8808 -2.77728e-005
            }
          }
        }
      }
    }
  }
}
MOTION
Frames:	16
Frame Time:	0.04
38.5191 95.0579 -33.4505 -1.81168 -6.52312 -18.1528 0.429766 2.9978 -1.31837 2.19247 1.32988 15.1992 -1.01808 13.6622 12.3531 5.94272 -6.83616 0.110652 1.76366 -6.66473 -0.0969529 -7.92011 -6.94202 3.24981 -0.682723 14.5914 1.94705 -2.99456 -5.51956 5.45749 3.27491 -11.087 3.99441 0.930492 5.98476 -2.66475 0.930492 5.98471 -2.66474 2.74085 -3.22337 5.92179 -22.2115 8.24609 -12.0379 -40.722 37.2815 -9.65234 13.5581 -1.4645 -27.3428 10.4099 0.385843 -5.34922 9.54166e-015 3.37934e-015 -3.97569e-016 6.36111e-015 2.5842e-015 1.59028e-015 24.3551 8.3337 13.5901 60.3572 31.6188 -9.82959 -22.8082 6.80581 14.25 9.40199 -3.89215 -3.42798 -3.97569e-016 3.18055e-015 -0 -9.93923e-017 0 1.98785e-016 -1.07439 -5.18183 6.77778 
38.4706 95.0122 -33.5116 -1.64322 -6.3474 -18.4137 0.490246 3.02183 -1.45842 2.01196 0.965874 15.6716 -0.901597 13.9228 12.3678 6.09699 -6.91024 0.110669 1.9505 -6.82416 -0.204115 -8.01429 -7.50003 2.98258 -0.86192 15.0318 2.1408 -2.95379 -5.80942 5.91781 3.31441 -11.2005 4.03208 1.0597 6.02981 -2.94884 1.0597 6.02992 -2.94885 2.42254 -3.54003 6.47779 -21.6189 8.73619 -12.6677 -40.9116 38.615 -9.98793 13.8149 -3.92485 -28.5993 10.8961 0.123676 -5.09303 9.54166e-015 1.98785e-015 4.96962e-016 9.54166e-015 -6.95747e-016 1.98785e-015 24.9787 8.11579 12.1664 62.6885 32.7231 -11.852 -20.6621 5.93715 11.49 9.39229 -4.50947 -3.21906 3.97569e-016 3.18055e-015 3.97569e-016 0 0 -3.97569e-016 -0.711493 -4.8952 7.07148 
38.443 94.9451 -33.6063 -1.50719 -5.92203 -18.5159 0.568133 2.99644 -1.65529 2.03214 0.250885 16.2283 -0.815403 14.5375 12.2445 5.87901 -7.38468 0.146709 2.0631 -6.94094 -0.223386 -7.88627 -8.18037 3.68445 -0.975755 15.3995 2.3295 -3.2175 -5.95985 5.45147 3.4455 -11.5346 4.10926 1.22535 5.9748 -3.3471 1.22535 5.97463 -3.3471 2.89819 -3.09223 7.25564 -21.7462 8.65097 -13.736 -41.6739 38.8967 -9.88307 14.2073 -4.20571 -30.0826 10.9592 0.119717 -5.40057 6.36111e-015 -2.5842e-015 -1.98785e-016 3.18055e-015 -1.59028e-015 -2.38542e-015 24.533 7.08463 10.5545 65.5898 33.7063 -14.6778 -20.4969 5.99957 10.1741 10.4548 -5.49532 -1.13015 1.19271e-015 1.27222e-014 -7.95139e-016 1.19271e-015 9.54167e-015 -7.95139e-016 -1.39447 -5.04424 8.16163 
38.3745 94.9382 -33.6407 -1.61634 -5.60132 -18.7556 0.666256 3.00374 -1.83689 2.17661 0.131179 16.2459 -1.17342 14.2141 12.6791 7.87529 -6.37132 0.0933336 2.88236 -8.16569 -0.673968 -7.64116 -8.41339 4.35014 -1.00011 15.1983 2.34136 -3.40385 -5.86861 5.12638 3.57456 -11.8419 4.15476 1.43166 5.98465 -3.71631 1.43166 5.9849 -3.71634 3.45168 -2.42759 7.984 -21.9352 8.32076 -14.7198 -42.8749 38.6703 -8.98756 15.7906 -2.20049 -32.1717 10.3376 -0.448491 -6.49899 -9.54166e-015 1.59028e-015 3.97569e-016 -9.54166e-015 1.59028e-015 -0 23.9587 5.84676 8.88412 67.0372 32.5243 -16.7812 -21.4807 6.94822 10.1093 10.5314 -6.66262 1.92208 -7.95139e-016 -3.18055e-015 1.59028e-015 -3.97569e-016 -3.18056e-015 7.95139e-016 -1.96268 -5.66796 9.16061 
38.3235 94.9196 -33.5801 -1.71285 -5.56686 -18.98 0.754164 3.09763 -1.97201 2.20332 -0.117147 16.5688 -0.955945 14.9212 12.2289 6.39053 -7.82102 0.169609 2.01777 -7.27669 0.287331 -7.59025 -8.45962 4.79777 -0.955299 15.1436 2.39993 -3.54714 -5.97751 4.80119 3.69298 -12.1631 4.25877 1.6174 6.16713 -3.99347 1.61833 6.16714 -3.99346 3.5839 -2.4624 8.49642 -21.6792 8.53962 -15.4078 -43.9204 38.8818 -7.8697 17.082 -0.687389 -34.5733 10.2117 -0.687518 -7.31657 -3.18055e-015 -3.18055e-015 1.59028e-015 -3.18055e-015 -3.18056e-015 3.97569e-015 23.6343 5.24517 7.06897 65.919 26.7966 -17.1467 -22.1012 8.6219 11.8519 8.60204 -8.14011 4.92333 -3.97569e-016 0 -0 -3.97569e-016 -3.18056e-015 -7.95139e-016 -2.13425 -5.76458 9.73036 
38.3824 94.8584 -33.5149 -1.48603 -5.72825 -19.1796 0.780075 3.20417 -2.05807 1.82879 -0.0962032 17.1753 -0.920149 14.9013 11.677 7.19285 -7.53503 0.147922 2.00446 -7.55466 0.417448 -7.86786 -8.8353 5.14351 -0.983799 15.8113 2.54262 -3.74044 -6.33348 4.58349 3.83678 -12.525 4.34906 1.67875 6.37787 -4.16943 1.67901 6.37788 -4.16943 3.75194 -2.63043 8.78339 -21.3797 8.81749 -15.9766 -44.8557 39.8697 -6.66256 18.3199 0.453711 -36.4005 9.97166 -1.33601 -8.5008 -6.36111e-015 -1.59028e-015 1.59028e-015 -4.41391e-032 -1.59028e-015 -1.59028e-015 23.2373 4.80041 5.1885 64.6687 19.5018 -17.4814 -23.8899 5.96594 15.0277 5.93493 -9.63575 5.87065 -1.86361e-015 1.59028e-015 -0 -2.55935e-015 0 1.98785e-016 -2.78478 -5.67468 10.1639 
38.4438 94.7356 -33.5356 -1.52775 -5.55789 -18.9907 0.893601 3.23499 -2.26484 2.05117 -0.751267 17.3655 -1.15827 15.9068 11.4244 7.64184 -7.81026 0.181169 2.01559 -7.73715 0.466386 -7.81478 -9.3293 5.81345 -0.866247 16.4664 2.61217 -4.16776 -6.52017 3.87142 3.95037 -12.8009 4.4087 1.91932 6.43159 -4.59093 1.91932 6.4316 -4.59094 3.52947 -2.19736 9.23102 -20.9204 8.42515 -16.361 -45.9236 41.6907 -4.82065 19.2846 0.651781 -38.0669 9.86691 -1.78771 -9.35066 -3.18055e-015 6.36111e-015 -1.59028e-015 -3.18055e-015 4.77083e-015 -3.18055e-015 22.8068 3.80066 3.71823 63.2963 10.8858 -18.0608 -24.8984 0.483014 20.8227 0.550659 -11.8038 4.17835 7.40317e-015 0 -4.96962e-017 4.30998e-015 0 3.44767e-016 -3.4026 -6.46969 10.6649 
38.4566 94.592 -33.4981 -1.85171 -5.45444 -18.6002 1.01884 3.27119 -2.52961 2.54723 -1.43499 17.2389 -1.36403 17.2681 11.1866 8.13828 -8.05643 0.204223 1.82575 -7.8931 0.641378 -7.48753 -9.50075 6.16085 -0.872606 16.9703 2.78783 -4.6308 -6.62824 3.17701 4.08121 -13.1547 4.53857 2.18686 6.49356 -5.12958 2.18687 6.49358 -5.12959 3.32251 -1.74329 9.89403 -20.486 7.9948 -16.5147 -47.3169 43.4399 -2.26023 19.6147 0.349618 -39.6067 10.2683 -2.10473 -9.56105 9.54166e-015 -1.59028e-015 -1.59028e-015 9.54166e-015 -4.77083e-015 -1.59028e-015 22.5403 2.86665 2.52912 61.8189 2.67987 -18.6114 -26.3463 -2.98465 27.979 -5.23755 -14.6014 4.30585 9.93923e-017 0 -2.18663e-015 4.17448e-015 0 -1.98785e-015 -4.03248 -6.99072 11.3808 
38.5132 94.4824 -33.3501 -2.12652 -5.78423 -18.1974 1.08238 3.32617 -2.67165 2.97512 -1.42977 16.3299 -2.14632 18.1475 12.0035 8.31325 -8.49613 0.251284 1.81836 -7.83874 0.589632 -7.45643 -9.24802 6.02039 -0.849442 17.4856 2.85705 -4.96479 -6.78062 2.86491 4.19115 -13.4592 4.66295 2.32323 6.59758 -5.41937 2.32512 6.59761 -5.41937 3.10687 -1.40561 10.3748 -20.2083 7.69903 -16.6982 -48.6293 45.0506 0.47549 19.5605 0.331527 -40.5269 10.1563 -1.82639 -9.61965 9.54166e-015 -6.36111e-015 3.18055e-015 6.36111e-015 -4.77083e-015 3.18055e-015 22.4079 2.18934 1.72378 59.7668 -6.41113 -19.0868 -31.6055 0.0418765 36.8331 -8.89299 -17.0165 7.15688 8.74652e-015 -3.18055e-015 -7.95139e-016 3.97569e-015 -3.18056e-015 7.95139e-016 -4.55367 -7.04261 11.8937 
38.6623 94.2355 -33.1677 -2.30015 -6.22663 -18.0404 1.08076 3.36247 -2.60975 3.13319 -1.56285 16.6307 -2.32068 19.4425 11.2665 9.87971 -8.24109 0.25201 1.93202 -8.56678 0.550913 -7.61138 -9.34909 5.68381 -0.771189 18.8152 2.94059 -5.24101 -7.38099 2.75452 4.28575 -13.7007 4.74033 2.31791 6.67147 -5.29618 2.31639 6.67151 -5.29628 2.98088 0.0105299 10.8822 -20.526 6.51102 -17.177 -49.4616 45.9322 2.84759 19.7231 1.32352 -40.8071 9.37176 -1.68902 -9.77673 -6.36111e-015 3.18055e-015 1.59028e-015 -6.36111e-015 1.59028e-015 1.59028e-015 21.7924 0.763575 1.93952 56.0739 -18.9539 -20.8384 -38.4438 5.03147 51.1279 -12.7841 -18.4158 9.57989 0 6.36111e-015 -0 2.38542e-015 3.18056e-015 -1.59028e-015 -6.14479 -7.94002 12.6663 
38.8002 93.8685 -33.0318 -2.6359 -6.51891 -17.5077 1.05965 3.37471 -2.40218 3.80625 -2.37457 15.8678 -2.8884 21.8783 11.2506 11.0636 -8.6078 0.286368 1.87161 -8.85334 0.560321 -7.5375 -9.66396 4.92279 -0.713214 20.6148 3.08884 -5.53635 -8.07699 2.49511 4.29963 -13.7407 4.75577 2.26252 6.70145 -4.87919 2.26611 6.70127 -4.87919 2.32758 0.389091 11.2341 -19.9262 6.10967 -17.4548 -50.455 46.0263 4.86601 19.288 1.42097 -40.8597 7.97211 -0.606167 -8.57493 -3.18055e-015 3.18055e-015 -3.18055e-015 -3.18055e-015 3.18056e-015 -3.18055e-015 21.5642 0.252505 1.89326 49.8466 -33.713 -24.1453 -47.3747 10.0428 70.0731 -15.7052 -20.0069 11.7699 -3.53112e-031 3.18055e-015 6.36111e-015 -3.18055e-015 3.18056e-015 6.36111e-015 -6.97166 -7.52906 12.9787 
38.8793 93.3943 -32.8494 -3.23551 -6.83345 -16.4424 0.963206 3.3851 -2.07387 5.27614 -3.41214 15.3904 -3.79347 25.2823 10.733 11.0015 -10.4687 0.484282 1.75477 -8.47073 0.31925 -7.18048 -9.76743 3.97763 -0.510053 22.6067 3.0633 -5.97035 -8.97632 1.99573 4.32664 -13.8046 4.77217 2.0613 6.73209 -4.21549 2.05417 6.7317 -4.21548 1.62011 0.874454 11.4208 -19.2123 5.58448 -17.8799 -50.7757 45.6472 6.34568 19.3332 1.81792 -40.0422 7.18267 -0.0194353 -7.51715 -4.41391e-032 -1.59028e-015 -1.59028e-015 -1.10348e-031 -1.59028e-015 -3.97569e-015 21.821 -0.230525 2.50224 43.9229 -42.8446 -25.9787 -48.3723 9.30641 83.5195 -18.5293 -23.2516 13.1472 -0 -3.18055e-015 -0 -3.18055e-015 -9.54167e-015 -3.18055e-015 -7.18172 -7.05717 13.0343 
38.8882 92.8835 -32.7517 -4.04181 -7.72001 -14.3833 0.790964 3.56052 -1.78333 7.08904 -4.21709 14.0747 -5.14972 28.4665 10.3904 12.0398 -11.6495 0.677898 1.8946 -8.68056 0.0600553 -6.70606 -9.24454 2.64533 -0.0736114 24.5766 3.10297 -6.80664 -9.80465 0.844967 4.38607 -13.959 4.82832 1.69772 7.09423 -3.62635 1.69772 7.09428 -3.62635 1.35212 0.814524 10.9424 -18.7602 5.43963 -17.708 -50.316 45.3611 6.76399 19.8077 2.35394 -38.7505 6.62788 0.164519 -6.64332 -3.18055e-015 0 7.95139e-016 0 7.95139e-016 -0 21.9608 0.312446 4.07878 42.517 -45.1805 -21.691 -48.0949 5.67044 88.1738 -22.8621 -24.1218 13.2744 1.27222e-014 3.18055e-015 -3.18055e-015 6.36111e-015 -3.18056e-015 -9.54166e-015 -7.40699 -5.74314 12.5607 
38.6678 92.1994 -32.9161 -5.29045 -8.01758 -12.2209 0.698213 3.69403 -1.36451 10.0396 -6.08634 14.9856 -5.87161 32.8719 8.23146 12.6351 -13.5856 0.894067 2.49464 -8.70735 -0.654124 -5.45789 -9.48731 3.2954 1.43782 26.8877 2.19825 -8.11191 -10.3264 -1.81834 4.47636 -14.1545 4.85087 1.48924 7.37007 -2.78279 1.48924 7.37007 -2.7828 1.34924 0.573309 9.79248 -18.7667 5.45812 -17.2469 -48.9922 44.1902 6.48909 20.4197 3.56152 -37.3933 7.08983 0.126859 -6.61942 -1.10348e-032 3.97569e-016 1.59028e-015 -3.18055e-015 0 1.19271e-015 21.414 1.40829 6.57071 42.1969 -46.4374 -14.2249 -48.2499 4.11381 89.7564 -28.5666 -23.1602 12.801 3.18055e-015 6.36111e-015 -3.18055e-015 3.18055e-015 9.54167e-015 -1.59028e-015 -7.83474 -4.91407 11.5282 
38.4804 91.5367 -33.2173 -6.09004 -8.32568 -9.06389 0.592375 3.89714 -1.00403 12.3748 -8.43161 14.4954 -6.66264 36.6811 6.25001 12.9202 -15.2527 1.11682 2.64775 -8.59247 -0.890407 -4.92306 -9.88868 2.90001 3.54417 29.1064 1.10604 -9.51714 -10.8323 -4.51504 4.5806 -14.3541 4.83977 1.25765 7.78304 -2.05564 1.25765 7.78308 -2.05566 1.62574 -0.170413 8.10202 -19.6977 6.06178 -16.406 -46.0243 43.3165 5.03748 20.2369 3.793 -36.064 7.93616 0.112313 -6.4488 3.18055e-015 4.96962e-017 -3.97569e-016 9.54166e-015 2.98177e-016 -1.2424e-015 19.4192 3.07881 9.29362 43.3949 -46.9571 -5.30545 -49.5183 3.62983 89.9794 -31.662 -24.3251 13.0881 -5.29669e-031 -4.77083e-015 -6.36111e-015 3.18055e-015 -6.36111e-015 -6.36111e-015 -8.57279 -4.14773 10.0925 
38.2207 90.5622 -33.5908 -6.92771 -8.472 -5.20526 0.547703 4.14722 -0.684202 14.6208 -11.9474 13.5998 -7.06292 41.5166 4.17719 12.6531 -17.5628 1.35128 2.63178 -8.13967 -1.03891 -4.4932 -10.9344 1.94944 6.05865 32.1372 -0.584793 -11.0279 -11.8631 -7.14901 4.69753 -14.6386 4.90868 1.13846 8.28742 -1.41458 1.14537 8.28748 -1.41375 1.44812 -1.19329 6.09913 -20.1779 6.73991 -15.2893 -42.265 42.9717 2.37903 19.3913 2.91138 -34.2906 8.00056 0.726201 -6.17671 5.51738e-033 7.95139e-016 -3.97569e-016 2.20695e-032 7.95139e-016 -1.59028e-015 17.4031 5.02059 12.8741 44.9468 -47.4826 4.03631 -51.1554 3.5852 89.0973 -33.4706 -25.6012 13.6543 -1.27222e-014 2.98177e-015 3.97569e-015 -6.36111e-015 3.77691e-015 9.93923e-016 -8.88541 -2.96779 8.17936 
